<?xml version="1.0" encoding="utf-8"?>
<!-- Generator: Adobe Illustrator 16.0.0, SVG Export Plug-In . SVG Version: 6.00 Build 0)  -->
<!DOCTYPE svg PUBLIC "-//W3C//DTD SVG 1.1//EN" "http://www.w3.org/Graphics/SVG/1.1/DTD/svg11.dtd">
<svg version="1.1" id="Layer_1" xmlns="http://www.w3.org/2000/svg" xmlns:xlink="http://www.w3.org/1999/xlink" x="0px" y="0px"
	 width="40px" height="40px" viewBox="0 0 40 40" enable-background="new 0 0 40 40" xml:space="preserve">
<g>
</g>
<g>
	<path fill="#EA4E1D" d="M4.988,20.34c0-8.283,6.715-15,15-15c8.284,0,15,6.717,15,15c0,8.285-6.716,15-15,15
		C11.704,35.34,4.988,28.625,4.988,20.34"/>
	<g>
		<g>
			<path fill="none" stroke="#FFFFFF" stroke-linecap="round" stroke-miterlimit="10" d="M10.348,19.508l8.875-5.037
				c0,0,0.765-0.479,1.417-0.129l7.216,4.288c0,0,5.311,2.87,1.586,2.87c-0.872,0-19.116,0-19.116,0S7.799,20.934,10.348,19.508z"/>
			<path fill="none" stroke="#FFFFFF" stroke-linecap="round" stroke-miterlimit="10" d="M19.906,13.509
				c0-0.369-0.086-0.776,0.019-1.129c0.06-0.201,0.25-0.34,0.376-0.508c0.094-0.124,0.127-0.143,0.229-0.209l0.04-0.04
				c1.238-0.762,0.822-2.786-0.697-2.974c-1.615-0.199-2.591,1.829-1.425,2.844"/>
		</g>
		<g>
			<path fill="#FFFFFF" d="M14.117,28.165c0,0.028-0.009,0.055-0.026,0.077c-0.018,0.023-0.047,0.043-0.087,0.058
				c-0.041,0.014-0.095,0.025-0.163,0.034s-0.153,0.013-0.256,0.013c-0.106,0-0.193-0.004-0.262-0.013
				c-0.069-0.009-0.124-0.021-0.163-0.034c-0.04-0.015-0.068-0.034-0.085-0.058c-0.018-0.022-0.027-0.049-0.027-0.077V25.9h-1.969
				v2.265c0,0.028-0.008,0.055-0.025,0.077c-0.016,0.023-0.044,0.043-0.085,0.058c-0.041,0.014-0.095,0.025-0.163,0.034
				s-0.154,0.013-0.26,0.013c-0.104,0-0.189-0.004-0.259-0.013c-0.069-0.009-0.124-0.021-0.165-0.034
				c-0.041-0.015-0.07-0.034-0.088-0.058c-0.018-0.022-0.026-0.049-0.026-0.077v-5.292c0-0.028,0.009-0.055,0.026-0.077
				c0.018-0.023,0.047-0.042,0.088-0.057c0.041-0.014,0.096-0.025,0.165-0.034c0.069-0.009,0.155-0.014,0.259-0.014
				c0.106,0,0.192,0.005,0.26,0.014s0.122,0.021,0.163,0.034c0.041,0.015,0.069,0.033,0.085,0.057
				c0.017,0.022,0.025,0.049,0.025,0.077v2.058h1.969v-2.058c0-0.028,0.009-0.055,0.027-0.077c0.018-0.023,0.046-0.042,0.085-0.057
				c0.04-0.014,0.094-0.025,0.163-0.034c0.069-0.009,0.156-0.014,0.262-0.014c0.103,0,0.188,0.005,0.256,0.014
				s0.122,0.021,0.163,0.034c0.041,0.015,0.07,0.033,0.087,0.057c0.018,0.022,0.026,0.049,0.026,0.077V28.165z"/>
			<path fill="#FFFFFF" d="M19.579,27.896c0.033,0.104,0.053,0.187,0.061,0.247s-0.002,0.105-0.032,0.136s-0.083,0.049-0.159,0.057
				c-0.076,0.007-0.181,0.011-0.313,0.011c-0.138,0-0.247-0.002-0.324-0.007c-0.077-0.004-0.136-0.013-0.177-0.026
				c-0.041-0.012-0.069-0.03-0.086-0.054c-0.016-0.022-0.03-0.053-0.041-0.09l-0.354-1.126h-1.978l-0.334,1.095
				c-0.011,0.04-0.025,0.075-0.043,0.103c-0.017,0.027-0.046,0.049-0.085,0.064c-0.04,0.016-0.095,0.026-0.167,0.032
				c-0.072,0.006-0.167,0.009-0.283,0.009c-0.125,0-0.223-0.004-0.293-0.013c-0.071-0.009-0.12-0.029-0.147-0.063
				c-0.027-0.032-0.037-0.08-0.028-0.141s0.028-0.142,0.061-0.242l1.624-4.971c0.016-0.049,0.035-0.089,0.057-0.119
				c0.021-0.03,0.056-0.054,0.104-0.069c0.047-0.016,0.113-0.026,0.197-0.03c0.084-0.005,0.195-0.007,0.333-0.007
				c0.16,0,0.288,0.002,0.383,0.007c0.095,0.004,0.169,0.015,0.222,0.03s0.091,0.04,0.114,0.072c0.023,0.031,0.043,0.074,0.059,0.13
				L19.579,27.896z M17.162,23.787h-0.004l-0.745,2.382h1.493L17.162,23.787z"/>
			<path fill="#FFFFFF" d="M24.658,27.922c0,0.066-0.01,0.126-0.032,0.179c-0.021,0.052-0.051,0.095-0.087,0.13
				c-0.037,0.034-0.08,0.06-0.131,0.075c-0.049,0.016-0.101,0.023-0.152,0.023h-0.455c-0.096,0-0.178-0.01-0.246-0.029
				c-0.07-0.021-0.135-0.058-0.191-0.111c-0.059-0.053-0.115-0.126-0.17-0.216c-0.054-0.092-0.115-0.209-0.183-0.354L21.699,25
				c-0.075-0.156-0.152-0.324-0.231-0.505s-0.149-0.355-0.212-0.525h-0.008c0.012,0.208,0.02,0.414,0.024,0.62
				c0.005,0.207,0.009,0.42,0.009,0.639v2.933c0,0.028-0.008,0.055-0.023,0.078c-0.015,0.022-0.04,0.042-0.076,0.058
				c-0.037,0.016-0.087,0.028-0.148,0.037c-0.063,0.009-0.143,0.013-0.241,0.013c-0.095,0-0.174-0.004-0.236-0.013
				s-0.111-0.021-0.146-0.037c-0.035-0.016-0.06-0.035-0.073-0.058c-0.014-0.023-0.021-0.05-0.021-0.078v-5.036
				c0-0.136,0.037-0.237,0.112-0.306c0.075-0.067,0.166-0.102,0.275-0.102h0.573c0.104,0,0.19,0.01,0.261,0.027
				c0.07,0.02,0.134,0.051,0.189,0.094s0.107,0.104,0.156,0.18c0.049,0.077,0.1,0.172,0.151,0.284l1.025,2.048
				c0.06,0.124,0.118,0.246,0.177,0.365c0.059,0.12,0.115,0.24,0.169,0.36c0.055,0.12,0.107,0.237,0.159,0.353
				c0.051,0.115,0.102,0.231,0.15,0.347h0.004c-0.009-0.202-0.014-0.413-0.018-0.632c-0.004-0.22-0.006-0.43-0.006-0.629v-2.628
				c0-0.028,0.008-0.055,0.023-0.078c0.017-0.022,0.043-0.043,0.082-0.061c0.037-0.017,0.088-0.029,0.15-0.037
				c0.062-0.007,0.143-0.011,0.24-0.011c0.092,0,0.169,0.004,0.232,0.011c0.062,0.008,0.109,0.021,0.144,0.037
				c0.034,0.018,0.058,0.038,0.071,0.061c0.014,0.023,0.02,0.05,0.02,0.078V27.922z"/>
			<path fill="#FFFFFF" d="M30.032,23.589c0,0.083-0.004,0.155-0.011,0.216s-0.017,0.109-0.028,0.145
				c-0.013,0.036-0.026,0.062-0.045,0.076c-0.018,0.015-0.038,0.022-0.062,0.022c-0.036,0-0.093-0.026-0.171-0.078
				c-0.079-0.052-0.184-0.109-0.314-0.17c-0.13-0.061-0.285-0.116-0.466-0.168s-0.39-0.078-0.629-0.078
				c-0.255,0-0.485,0.047-0.692,0.141c-0.205,0.094-0.381,0.227-0.529,0.398c-0.146,0.172-0.258,0.378-0.337,0.618
				c-0.079,0.242-0.118,0.509-0.118,0.8c0,0.32,0.04,0.603,0.12,0.846c0.081,0.245,0.192,0.448,0.335,0.613
				c0.145,0.164,0.318,0.289,0.52,0.372c0.203,0.084,0.426,0.126,0.671,0.126c0.119,0,0.236-0.014,0.354-0.043
				c0.116-0.029,0.226-0.072,0.325-0.13v-1.299h-0.996c-0.05,0-0.088-0.033-0.115-0.099c-0.027-0.064-0.041-0.175-0.041-0.331
				c0-0.08,0.004-0.147,0.01-0.203c0.008-0.055,0.018-0.099,0.031-0.133c0.014-0.032,0.029-0.057,0.049-0.072
				s0.041-0.024,0.066-0.024h1.777c0.044,0,0.082,0.009,0.116,0.024s0.063,0.039,0.09,0.07c0.026,0.032,0.045,0.07,0.059,0.115
				s0.021,0.096,0.021,0.153v2.23c0,0.087-0.015,0.162-0.042,0.228c-0.029,0.064-0.087,0.116-0.176,0.154
				c-0.088,0.037-0.197,0.075-0.328,0.116c-0.13,0.04-0.265,0.075-0.404,0.104c-0.14,0.029-0.28,0.051-0.423,0.065
				s-0.286,0.021-0.431,0.021c-0.42,0-0.796-0.064-1.128-0.192c-0.334-0.128-0.615-0.314-0.846-0.56
				c-0.23-0.243-0.406-0.54-0.529-0.892c-0.121-0.351-0.182-0.748-0.182-1.192c0-0.459,0.064-0.871,0.195-1.236
				c0.129-0.364,0.314-0.676,0.553-0.932c0.238-0.255,0.527-0.45,0.865-0.586s0.714-0.204,1.13-0.204
				c0.227,0,0.435,0.018,0.622,0.051c0.187,0.033,0.351,0.072,0.49,0.121c0.14,0.047,0.256,0.099,0.348,0.153
				c0.093,0.055,0.157,0.103,0.193,0.143c0.037,0.041,0.063,0.098,0.08,0.172C30.023,23.334,30.032,23.444,30.032,23.589z"/>
		</g>
	</g>
</g>
</svg>
